<?xml version="1.0" encoding="UTF-8" standalone="no"?>
<!DOCTYPE svg PUBLIC "-//W3C//DTD SVG 1.1//EN" "http://www.w3.org/Graphics/SVG/1.1/DTD/svg11.dtd">
<!-- Created with Vectornator (http://vectornator.io/) -->
<svg height="100%" stroke-miterlimit="10" style="fill-rule:nonzero;clip-rule:evenodd;stroke-linecap:round;stroke-linejoin:round;" version="1.1" viewBox="0 0 1500 1500" width="100%" xml:space="preserve" xmlns="http://www.w3.org/2000/svg" xmlns:vectornator="http://vectornator.io" xmlns:xlink="http://www.w3.org/1999/xlink">
<defs>
<linearGradient gradientTransform="matrix(1 0 0 1 0 0)" gradientUnits="userSpaceOnUse" id="LinearGradient" x1="105.437" x2="1409.04" y1="749.533" y2="749.533">
<stop offset="0" stop-color="#e38f6b"/>
<stop offset="1" stop-color="#3d82cc"/>
</linearGradient>
</defs>
<g id="Livello-1" vectornator:layerName="Livello 1">
<path d="M105.437 46.5497L302.787 46.5497L302.787 635.523L105.437 635.523L105.437 46.5497ZM326.299 139.672L523.65 139.672L523.65 635.523L326.299 635.523L326.299 139.672ZM546.672 233.428L744.023 233.428L744.023 636.523L546.672 636.523L546.672 233.428ZM766.743 325.904L966.205 325.904L966.205 635.523L766.743 635.523L766.743 325.904ZM987.629 419.802L1187.09 419.802L1187.09 635.523L987.629 635.523L987.629 419.802ZM1206.5 510.97L1409.04 510.97L1409.04 635.523L1206.5 635.523L1206.5 510.97ZM1409.04 1452.52L1211.69 1452.52L1211.69 863.542L1409.04 863.542L1409.04 1452.52ZM1188.18 1359.39L990.829 1359.39L990.829 863.542L1188.18 863.542L1188.18 1359.39ZM967.806 1265.64L770.455 1265.64L770.455 862.542L967.806 862.542L967.806 1265.64ZM747.735 1173.16L548.273 1173.16L548.273 863.542L747.735 863.542L747.735 1173.16ZM526.849 1079.26L327.387 1079.26L327.387 863.542L526.849 863.542L526.849 1079.26ZM307.98 988.096L105.437 988.096L105.437 863.542L307.98 863.542L307.98 988.096Z" fill="url(#LinearGradient)" fill-rule="nonzero" opacity="1" stroke="none" vectornator:layerName="Curva 1"/>
</g>
<clipPath id="ArtboardFrame">
<rect height="1500" width="1500" x="0" y="0"/>
</clipPath>
<g clip-path="url(#ArtboardFrame)" id="Livello-2" vectornator:layerName="Livello 2">
<g fill="#000000" opacity="1" stroke="none" vectornator:layerName="Testo 1">
<path d="M245.263 711.566L219.763 711.566L219.763 705.816C219.763 699.983 218.388 694.941 215.638 690.691C212.888 686.441 208.263 684.316 201.763 684.316C198.263 684.316 195.429 684.983 193.263 686.316C191.096 687.65 189.346 689.316 188.013 691.316C186.679 693.483 185.763 695.941 185.263 698.691C184.763 701.441 184.513 704.316 184.513 707.316C184.513 710.816 184.638 713.733 184.888 716.066C185.138 718.4 185.763 720.483 186.763 722.316C187.763 724.15 189.221 725.733 191.138 727.066C193.054 728.4 195.679 729.733 199.013 731.066L218.513 738.816C224.179 740.983 228.763 743.525 232.263 746.441C235.763 749.358 238.513 752.733 240.513 756.566C242.346 760.566 243.596 765.108 244.263 770.191C244.929 775.275 245.263 781.066 245.263 787.566C245.263 795.066 244.513 802.025 243.013 808.441C241.513 814.858 239.096 820.316 235.763 824.816C232.263 829.483 227.679 833.15 222.013 835.816C216.346 838.483 209.429 839.816 201.263 839.816C195.096 839.816 189.346 838.733 184.013 836.566C178.679 834.4 174.096 831.4 170.263 827.566C166.429 823.733 163.388 819.275 161.138 814.191C158.888 809.108 157.763 803.566 157.763 797.566L157.763 788.066L183.263 788.066L183.263 796.066C183.263 800.733 184.638 804.941 187.388 808.691C190.138 812.441 194.763 814.316 201.263 814.316C205.596 814.316 208.971 813.691 211.388 812.441C213.804 811.191 215.679 809.4 217.013 807.066C218.346 804.733 219.138 801.941 219.388 798.691C219.638 795.441 219.763 791.816 219.763 787.816C219.763 783.15 219.596 779.316 219.263 776.316C218.929 773.316 218.263 770.9 217.263 769.066C216.096 767.233 214.554 765.733 212.638 764.566C210.721 763.4 208.179 762.15 205.013 760.816L186.763 753.316C175.763 748.816 168.388 742.858 164.638 735.441C160.888 728.025 159.013 718.733 159.013 707.566C159.013 700.9 159.929 694.566 161.763 688.566C163.596 682.566 166.346 677.4 170.013 673.066C173.513 668.733 177.971 665.275 183.388 662.691C188.804 660.108 195.263 658.816 202.763 658.816C209.096 658.816 214.888 659.983 220.138 662.316C225.388 664.65 229.929 667.733 233.763 671.566C241.429 679.566 245.263 688.733 245.263 699.066L245.263 711.566Z"/>
<path d="M470.763 660.316L434.263 838.316L411.763 838.316L375.513 660.316L402.513 660.316L422.763 784.566L423.263 784.566L443.763 660.316L470.763 660.316Z"/>
<path d="M606.013 838.316L606.013 660.316L682.013 660.316L682.013 684.316L631.513 684.316L631.513 736.566L675.513 736.566L675.513 760.566L631.513 760.566L631.513 812.816L682.013 812.816L682.013 838.316L606.013 838.316Z"/>
<path d="M844.013 684.316L844.013 739.816L858.513 739.816C863.013 739.816 866.596 739.191 869.263 737.941C871.929 736.691 874.013 734.9 875.513 732.566C876.846 730.233 877.763 727.358 878.263 723.941C878.763 720.525 879.013 716.566 879.013 712.066C879.013 707.566 878.763 703.608 878.263 700.191C877.763 696.775 876.763 693.816 875.263 691.316C872.096 686.65 866.096 684.316 857.263 684.316L844.013 684.316ZM818.513 838.316L818.513 660.316L859.513 660.316C889.513 660.316 904.513 677.733 904.513 712.566C904.513 723.066 902.888 731.983 899.638 739.316C896.388 746.65 890.679 752.566 882.513 757.066L910.013 838.316L883.013 838.316L859.263 762.316L844.013 762.316L844.013 838.316L818.513 838.316Z"/>
<path d="M1096.51 776.066L1084.01 711.566L1083.51 711.566L1071.01 776.066L1096.51 776.066ZM1033.51 838.316L1073.26 660.316L1094.51 660.316L1134.26 838.316L1108.76 838.316L1101.26 800.066L1066.51 800.066L1059.01 838.316L1033.51 838.316Z"/>
<path d="M1266.76 838.316L1266.76 660.316L1304.51 660.316C1319.18 660.316 1330.3 664.316 1337.89 672.316C1345.47 680.316 1349.26 691.65 1349.26 706.316L1349.26 789.566C1349.26 806.233 1345.22 818.525 1337.14 826.441C1329.05 834.358 1317.43 838.316 1302.26 838.316L1266.76 838.316ZM1292.26 684.316L1292.26 814.316L1304.01 814.316C1311.18 814.316 1316.26 812.525 1319.26 808.941C1322.26 805.358 1323.76 799.733 1323.76 792.066L1323.76 706.316C1323.76 699.316 1322.35 693.9 1319.51 690.066C1316.68 686.233 1311.51 684.316 1304.01 684.316L1292.26 684.316Z"/>
</g>
<path d="M-1.95432 635.523L1500 635.523" fill="none" opacity="1" stroke="#000000" stroke-linecap="butt" stroke-linejoin="round" stroke-width="20" vectornator:layerName="Linea 1"/>
<path d="M0 862.542L1501.95 862.542" fill="none" opacity="1" stroke="#000000" stroke-linecap="butt" stroke-linejoin="round" stroke-width="20" vectornator:layerName="Linea 2"/>
</g>
</svg>
